<?xml version="1.0" encoding="utf-8"?>
<!-- Generator: Adobe Illustrator 26.1.0, SVG Export Plug-In . SVG Version: 6.00 Build 0)  -->
<svg version="1.1" id="Lager_1" xmlns="http://www.w3.org/2000/svg" xmlns:xlink="http://www.w3.org/1999/xlink" x="0px" y="0px"
	 viewBox="0 0 595.28 841.89" style="enable-background:new 0 0 595.28 841.89;" xml:space="preserve">
<style type="text/css">
	.st0{fill:#DA2C74;}
	.st1{fill:#DB2C75;}
	.st2{fill:#DB2C74;}
	.st3{fill:#CD2C6E;}
	.st4{fill:#FAFAFA;}
	.st5{fill:#DC2A88;}
</style>
<g>
	<g>
		<path class="st0" d="M512.64,362.81c7.82,0.32,16-1.43,22.96,3.96c5.56,6.62,6.49,10.64,3.05,16.07
			c-3.31,5.23-6.44,9.2-16.23,7.13c-3.2-0.67-6.22,0.75-9.29,1.3c-21.39,3.88-42.17,10.37-63.43,14.8
			c-7.17,1.49-14.43,2.46-21.74,0.89c-3.4-0.73-4.62,0.5-5.04,3.96c-1.33,10.91-2.27,21.84-2.63,32.81
			c-0.15,4.49-2.88,7.69-4.78,11.33c-0.35,0.67-1.41,1.64-1.84,1.51c-5.05-1.56-10.91,1.07-15.42-2.89
			c-1.04-0.91-2.36-1.26-3.3-2.06c-3.38-2.88-6.3-5.76-6.15-11.06c0.38-13.58,0.13-27.17,0.13-41.52c-3.58,1.39-3.2,3.57-3.65,5.08
			c-5.65,19.02-13.38,37.1-22.66,54.65c-5.56,10.52-13.47,10.46-23.24,7.51c-3.77-1.14-7.44-3.18-10.28-5.97
			c-3.68-3.62-4.9-1.81-6.24,1.91c-2.31,6.39-3.65,13.12-6.66,19.28c-3.28,6.71-6.38,8.25-13.89,6.68
			c-4.42-0.93-8.12-3.58-12.28-5.28c-1.13,1.53-0.52,3.03-0.47,4.41c0.11,2.66,0.4,5.31,0.68,7.96c0.47,4.45-0.28,11.02-3.16,11.64
			c-4.43,0.95-9.97,3.28-14.74-0.11c-1.18-0.84-2.58-0.63-3.72-1.17c-4.07-1.92-7.43-3.85-7.56-9.64
			c-0.44-18.96-1.58-37.9-2.47-56.85c-0.04-0.83-0.14-1.66-0.32-2.47c-2.99-13.16,4.96-22.14,17.95-19.47
			c8.23,1.69,7.79,0.37,7.77-6.97c-0.01-2.16-0.27-4.32-0.51-6.47c-0.85-7.6-0.96-7.26-8.45-9.25c-5.65-1.5-10.58-4.89-14.08-9.58
			c-1.98-2.65-1.14-6.5,0.75-8.95c2.44-3.15,6.02-5.6,10.33-4.94c3.99,0.62,8.31,0.65,11.45,4.1c1.71,1.87,3.81,1.11,5.96,0.26
			c10.62-4.18,16.82-1.99,22.66,7.58c1.31,2.15,1.48,4.29,1.43,6.66c-0.14,6.49-0.92,12.96-0.29,19.46
			c0.25,2.54,0.57,4.02,3.89,2.54c10.81-4.83,19.12-2.39,25.93,7.1c0.94,1.31,1.54,3.48,3.3,3.45c2.05-0.04,1.79-2.5,2.44-3.88
			c2.76-5.86,5.08-11.93,7.97-17.72c3.87-7.77,6.14-16.06,9.03-24.16c4.17-11.69,6.44-23.83,10.39-35.52
			c0.81-0.13,1.39-0.06,0.85,0.99c0,1.12,0,2.24,0,3.36c0.26,0.04,0.51,0.08,0.77,0.11c1.79-7.09,3.58-14.18,5.38-21.26
			c-0.41-2.42-2.74-4.48-1.35-7.24c3.76-16.73,6.85-33.54,6.55-50.79c-0.07-4.28,1.95-6.5,6.28-7.52
			c13.25-3.15,22.58,8.14,20.87,19.77c-2.36,16.07-3.49,32.31-2.27,48.87c6.09-1.99,7.61-7.67,9.92-12.22
			c3.83-7.55,7.79-15.03,11.84-22.46c6.07-11.12,13.2-21.45,22.8-29.89c2.34-2.06,3.38-5.18,6.15-7.08
			c4.52-3.1,9.34-4.92,14.73-5.46c1.2-0.32,2.27-0.21,2.98,0.98c2.34,1.61,4.69,3.22,7.03,4.83c1.9,1.15,2.12,3.3,2.98,5.07
			c3.06,2.88,2.49,6.25,1.25,9.67c-3.68,10.15-10.02,18.78-15.97,27.59c-14.91,22.08-29.41,44.4-42.1,67.86
			c-1.59,2.94-2.77,6.04-3.62,9.29c-0.89,3.42,0.17,5,3.82,5.05c6.05,0.1,12.02-0.76,17.72-2.48c16.41-4.97,33.23-8.17,49.85-12.27
			C505.99,364.82,509.22,363.45,512.64,362.81z"/>
		<path class="st1" d="M365.18,100.17c6.03-12.64,10.31-26.01,12.37-39.7c1.84-12.3,13.06-13.19,20.03-9.18
			c5.24,3.01,8.58,7.6,9.08,13.53c0.52,6.08,0.68,12.27-0.35,18.36c-1.01,5.98,0.41,7.5,6.11,5.48c8.56-3.03,16.99-6.45,25.47-9.71
			c7.14-1.68,13.69-4.96,20.53-7.47c6.81-2.5,13.5-3.13,20.09,0.92c5.17,3.18,7.32,7.81,6.21,13.54c-0.98,5.08-4.63,8.69-9.5,9.82
			c-21.28,4.96-41.37,13.15-61.3,21.85c-4.76,2.08-6.4,4.57-6.48,10.44c-0.18,13.98,2.11,27.85,1.24,41.8
			c-0.34,5.39,0.65,10.58,1.89,15.77c1,4.19,4.58,6.68,7.3,9.17c4.01,3.67,5.11,8.41,5.77,12.75c1.47,9.65,2.44,19.52,0.05,29.27
			c-0.36,0.7-0.76,1.38-1.09,2.1c-3.73,8.31-11.08,10.78-19.29,6.57c-7.67-3.93-12.45-9.91-14.82-18.36
			c-4.51-16.02-5.07-32.5-6.2-48.89c-0.91-13.26-0.9-26.6-1.18-39.9c-0.07-3.58-0.21-5.24-4.51-2.8c-5.71,3.24-9.83,7.11-10.73,13.9
			c-0.23,1.76-0.84,3.78-1.97,5.06c-5.59,6.35-6.2,13.27-3.41,21c1.31,3.63,0.85,7.56,0.58,11.39c-0.95,0.91-1.69,2.06-2.99,2.59
			c-0.75,0.31-2.01,0.79-1.73,1.53c2.32,6-4.77,11.86,0.14,18.17c1.93,2.47-1.97,6.61-5.05,5.43c-2.21-0.85-3.08-0.39-4.47,1.3
			c-2.2,2.68-5.22,1.89-6.34-1.34c-1.21-3.46-5.61-5.36-8.77-3.71c-2.93,1.53-4.75,0.8-5.4-2.52c2.2-6.78,5.29-13.28,5.75-20.59
			c0.17-2.7,0.12-5.31-0.52-7.91c-0.31-1.26-0.45-2.87-2.16-2.96c-1.92-0.11-1.77,1.67-2.07,2.86c-0.79,3.09-0.84,6.26-0.81,9.43
			c0.04,4.16,0.13,8.34-1.03,12.4c-1.76,3.83-2.85,8.11-8.09,9.02c-1.85,0.32-2.01,2.01-0.41,3.35c1.01,0.86,2.07,1.69,2.6,2.96
			c0.77,1.85,0.71,3.68-0.99,4.94c-1.81,1.34-3.48,0.57-4.82-0.91c-1.09-1.21-1.77-2.7-3.24-3.68c-5.46-3.65-5.14-7.76,0.72-11.05
			c0.97-0.54,2.29-0.5,2.95-1.73c-1.21-0.61-3.04,0.5-3.74-1.45c-0.21-0.58-0.53-0.49-0.54-0.33c-0.13,2.98-2.19,3.4-4.51,3.34
			c-1.91-0.05-2.43,1.37-3.2,2.65c-0.93,1.55-2.05,2.73-3.95,1.24c-2.46-12.16-3.69-24.43-3.09-36.85
			c2.11-5.32,0.55-11.15,2.61-16.61c2.27-6.03,6.1-10.11,12.63-10.53c3.85-0.25,6.26-0.92,7.55-5.27
			c1.57-5.26,10.43-8.21,17.66-6.71c1.93,0.4,4,0.61,5.73,1.45c2.41,1.17,3.6-0.11,5.12-1.54c1.63-1.54,0.9-2.94,0.26-4.48
			c-2.16-5.11-0.72-9.25,4.28-12.51c2.74-1.79,6.1-2.71,8.02-5.66c2.55-2.21,4-5.06,4.85-8.27
			C363.85,101.77,364.05,100.77,365.18,100.17z"/>
		<path class="st0" d="M266.73,280.95c-2.12-1.91-4.86-3.01-7.75-3.06c-8.26-0.16-16.23,1.47-23.5,5.38
			c-9.75,5.25-18.49,11.74-26.1,20.07c-2.45,2.68-2.17,6.15-4.77,8.22c-2.42,1.92-4.03,4.57-5.01,7.32
			c-2.26,6.37-6.28,11.67-9.72,17.32c-0.57,0.94-0.99,2.43-2.39,2.17c-1.98-0.37-0.04-2.36-1.67-3.86c-0.86,3.5-3.32,6.52-5.25,6.83
			c-4.48,0.7-4.72,4.33-6.47,6.85c-1.85,2.68-3.87,4.77-7.04,5.95c-8.09,3.03-10.57,7.6-9.27,16.33
			c3.26,21.89,4.32,44.01,6.71,65.99c0.34,3.11-0.26,5.58-2.71,8.03c-3.89,3.88-3.11,9.04,1.5,12.3c1.54,1.09,2.25,2.21,2.42,3.99
			c1.59,16.38,3.38,32.75,4.8,49.15c1.15,13.28,2.56,26.46,7.14,39.12c1.53,4.24,4.09,7.54,8.17,8.72c2.34,0.68,4.67,1.47,6.99,2.22
			c10.16,3.28,17.98-3.17,15.49-13.52c-3.34-13.93-5.25-28.07-7.2-42.21c-2.02-14.65-5.49-29.01-8.22-43.52
			c-0.53-2.79-0.87-5.35,1.82-7.67c26.62-22.96,46.85-51.12,64.95-80.95c10.76-17.73,19.63-36.15,21.41-57.36
			C282.24,300.74,276.73,289.95,266.73,280.95z M256.41,317.7c-0.85,13.15-7.28,26.85-13.3,38.38c-0.22,0.42-0.45,0.83-0.67,1.24
			c-6.89,14.32-14.68,28.34-23.55,41.51c-0.05,0.08-0.11,0.16-0.17,0.24c-4.75,12.91-12.08,25.43-25.39,29.74
			c-2.82,0.91-5.17-1.08-6.15-3.49c-5.05-12.4-2.31-26.72,1.52-39.08c1.37-4.43,2.91-8.89,4.59-13.32
			c-0.44-3.21,1.28-5.63,2.82-8.18c-0.62-1.49-1.1-3.05-1.11-4.76c-0.04-8.51,6.1-16.71,10.9-23.27
			c7.02-9.57,16.39-18.57,26.23-25.47c2.08-1.82,4.56-3.5,7.1-4.44c3.31-1.69,7-2.82,10.49-1.79
			C255.21,306.67,256.74,312.63,256.41,317.7z"/>
		<path class="st0" d="M240.98,319.73c0.56-1.07,1.11-2.14,1.66-3.22c-0.03-0.06-0.06-0.11-0.09-0.16
			c-0.74,0.39-1.47,0.81-2.18,1.27C240.74,318.23,240.94,318.95,240.98,319.73z"/>
		<path class="st0" d="M182.38,222.86c-0.93-4.7-1.85-9.39-2.78-14.09c-3.48-7.41-3.77-15.4-4.21-23.35
			c0.01-0.95,2.27-2.13-0.29-2.85c-1.28-3.28-2.03-6.61-1.22-10.13c1.42-1.44,3.52-1.33,5.21-2.44c3.31-2.18,4.6,2.16,7.11,2.95
			c2.08,0.65,1.28,2.19,0.67,3.64c-0.63,1.5-0.55,3.21-1.57,4.65c-2.75,3.86-2.7,3.89,2.02,6.09c-0.18-0.27-0.38-0.54-0.46-0.86
			c-0.71-2.97-0.46-6.22,2.42-7.32c3.13-1.19,4.1,2.42,5.65,4.38c0.2,0.25,0.38,0.58,0.4,0.9c0.32,4.51,1.9,7.79,7.2,7.48
			c0.98,6.2,2.23,12.37,2.86,18.6c0.43,4.24,1.84,4.22,4.72,2.02c15.4-11.76,28.17-25.55,34.48-44.4c0.15-0.45,0.49-0.84,0.75-1.26
			c3.69-0.09,5.17,2.5,6.26,5.37c1.42,3.74-2.04,5.1-3.95,7.38c3.32,0.45,6.19,0.43,9.15-1.37c2.85-1.73,6.24-2.16,9.54-0.71
			c3.41,1.5,4.38-0.28,3.78-3.19c-0.55-2.66-0.35-4.81,1.66-6.79c1.73-1.71,1.19-3.51-0.14-5.34c-2.15-2.97-1.98-5.88,1.67-7.23
			c3.23-1.2,1.9-4.8,4.08-6.35c1.59,8.32,0.46,16.85,1.83,25.19c0.29,1.78-0.06,3.66,0.92,5.32c0.5,13.78,3.01,27.34,4.6,41
			c0.61,5.26,1.56,10.48,2.36,15.71c-1.65,3.75-2.84,7.69-6.62,10.21c-1.85,1.23-1.03,3.73-0.66,5.65c0.59,3.08,0.68,5.9-1.81,8.33
			c-2.17,2.11-0.51,5.67-2.75,7.81c-1.33-0.64-2.67-1.29-4-1.93c-1.12-1.09-1.69-3.17-3.95-2.16c-1.43-0.52-2.46-1.51-3.26-2.77
			c0.97-2.86,3.79-5.04,2.65-8.72c-0.48-1.57,1.62-2.27,2.68-3.27c3.74-3.55,4.01-6.59,1.01-10.84c-1.44-2.04-0.38-5.53,2.01-6.79
			c1.18-0.62,2.56-0.01,4.04-0.84c-3.96-1.51-5.33,1.29-6.72,3.59c-4.07,6.73-4.5,6.85-10.47,1.77c-1.58-6.82-2.07-13.76-2.07-20.74
			c0-3.68-0.41-7.27-1.94-10.64c-1.57-0.3-2.07,0.98-2.75,1.76c-11.61,13.31-24.83,24.93-38.29,36.26c-3.19,2.68-4.6,5.44-3.69,9.45
			c1.23,5.43,0.83,11.03,3.46,16.4c1.66,3.4,1.47,8.89-1.47,11.66c-3.64,3.43-8.8,3.87-14.04,2.35
			c-8.17-2.37-14.92-6.82-21.07-12.54c-2.76-2.57-5.52-5.28-9.03-6.92c-1.33-1.45-2.94-2.5-4.74-3.26
			c-2.15-0.07-3.15-1.53-3.91-3.26c-4.77-3.89-2.65-7.66,0.2-11.41c1.02-3.96,4.05-5.36,7.64-6.07c2.4-0.98,4.8-1.95,7.2-2.93
			c0.09-0.32,0.18-0.7,0.44-0.85C179.99,232.43,182.39,228.35,182.38,222.86z"/>
		<path class="st0" d="M327.11,208.77c1.49,2.49,3.23,3.02,4.79,0.23c0.73-1.31,1.66-2.79,2.84-1.81c2.19,1.81,3.8,4.07,7.25,3.47
			c0.87-0.15,1.41,1.79,0.47,2.86c-1.05,1.2-1.17,1.97,0.55,2.45c1.23,0.34,2.32,1.1,3.15-0.92c1.01-2.45,2.13-6.31,5.41-1.45
			c1.01,1.5,1.99,0.26,2.81-0.53c1.27-1.22,2.41-2.64,0.91-4.3c-3.88-4.3-2.88-8.38,0.24-12.5c0.27-0.36,0.56-1.11,0.38-1.37
			c-4.56-6.76,1.75-6.44,5.15-8c0.03,1,0.05,2,0.08,3c-1.61,1.27-1.57,2.61-0.15,4c-0.19,13.97-5.4,26.29-13.48,37.21
			c-6.75,9.12-18.67,11.04-29.12,6.66c-12.52-5.24-18.58-14.79-19.99-27.87c1.17-0.05,2.45,0,2.73-1.53
			c0.57-3.07,2.39-4.01,5.35-3.53c1.4,0.23,2.62-0.15,2.53-2.12c-0.06-1.36-2.67-3.74,0.95-3.87c3.4-0.13,1.25,2.96,1.92,4.46
			c1.74,0.05,2.51-2.67,4.43-1.45c0.81,0.51,0.55,1.4,0.32,2.25c-0.48,1.79-1.33,2.72-3.4,2.89c-3.23,0.27-5.16,2.79-5.53,5.6
			c-0.35,2.68,2.4,3.05,4.54,3.54c1.53,0.35,1.7,1.77,2.07,3.09c0.52,1.84,1.95,3,3.72,1.92c1.67-1.02,1.44-2.86,0.35-4.39
			c-0.47-0.65-1.18-1.16-1.83-1.66c-1.12-0.86-3.29-0.94-3.06-2.8c0.24-1.93,2.7-3.66,3.68-3.56c5.61,0.57,4.78-4.79,7.13-7.12
			C327.62,203.05,326.33,206.32,327.11,208.77z"/>
		<path class="st2" d="M275.29,267.85c0.05-3.89-0.46-7.57,3.28-10.81c2.08-1.8-0.43-5.58-0.69-8.48c-0.18-1.98,0.01-3.51,1.67-4.11
			c4.05-1.46,4.87-4.7,5.43-8.37c0.28-1.85,1.41-0.28,2.15-0.22c0.93,4.1,2.26,7.95,4.55,11.6c3.72,5.93,2.77,13.29-1.77,18.45
			C286.77,269.49,281.03,270.24,275.29,267.85z"/>
		<path class="st2" d="M259.28,235.88c6.92,5.07,8.91-1.32,11.45-5.3c1.85-2.89,3.69-2.73,6.22-1.66c1.33,0.56,2.54,1.25,1.95,2.89
			c-0.52,1.44-1.96,1.21-2.99,0.76c-3.5-1.54-4.41,0.63-5.08,3.32c-0.18,0.72-0.13,1.59,0.52,1.69c7.44,1.04,0.91,5.98,2.37,8.69
			c0.07,0.13-1.18,0.74-1.37,1.29c-1,2.91-6.22,3.62-3.91,8.54c0.68,1.45-2.25,3.77-4.38,4.9c-2.43-1.7-1.7-4.47-2.05-6.76
			C261.07,248.12,259.03,242.17,259.28,235.88z"/>
		<path class="st2" d="M267.34,263.76c0.16-1.1,0.3-2.6,1.78-2.14c1.9,0.6,2.3,2.42,2.17,4.29
			C269.61,265.85,268.38,264.98,267.34,263.76z"/>
		<path class="st1" d="M360.98,193.89c-1.2-0.12-2.44-0.47-2.52-1.83c-0.1-1.72,1.31-2.02,2.67-2.17
			C361.08,191.23,361.03,192.56,360.98,193.89z"/>
		<path class="st3" d="M377.03,341.88c-0.28-0.33-0.56-0.66-0.85-0.99c0.35-1.18,0.69-2.37,1.04-3.55
			C378.18,339,378.13,340.5,377.03,341.88z"/>
		<path class="st1" d="M277.41,148.64c-0.34,3.34,1.14,7.37-4.69,7.97c-2.06,0.21-1.96,3.35-0.05,4.83c3.7,2.87,2.43,5.49-0.36,7.71
			c-1.72,1.37-1.84,2.49-0.82,4.15c1.47,2.4,0.39,4.73-0.96,6.47c-1.76,2.26-3.23-0.43-4.6-1.14c-2.93-1.53-6.64-0.98-8,0.57
			c-3.2,3.64-7.07,1.27-10.38,2.45c-1.02,0.36-2.01,0-2.56-0.99c-0.63-1.13,0.09-1.79,0.96-2.43c6.5-4.8,6.42-6.18-0.59-11.36
			c0.7-3.91,1.12-7.89,2.15-11.71c3.81-14.2,0.13-28.12-1.39-42.1c-1.2-10.97,7.34-17.63,17.92-13.56c4.1,1.58,6.87,4.37,8.21,8.72
			C276.29,121.4,277.07,134.99,277.41,148.64z"/>
		<path class="st1" d="M202.53,191.9c-2.7-0.79-5.31,3.3-7.18,1.08c-1.02-1.2-0.66-4.61-0.85-7.03c-0.2-2.58-2.55-3.79-3.58-5.85
			c-0.47-0.93-1.62-0.71-1.93,0.2c-0.69,1.98-2.24,3.99-0.96,6.13c0.6,1,1.95,1.55,4.2,3.22c-5.49-0.19-8.68-2.67-12.09-4.39
			c-0.6-0.3-0.6-1.53-0.02-1.69c4.78-1.3,4.98-5.74,6.51-9.38c-1.08-0.22-2.85-0.1-3.18-0.73c-1.99-3.8-3.41-4.45-5.71-0.09
			c-0.78,1.47-2.06-0.76-3.02-1.48c-1.88-1.7-2.06-3.75-1.2-6c-0.66-4-1.31-7.99-1.97-11.99c-1.84-3.1-2.68-6.4-2.01-10
			c-0.57-3.09-1.14-6.18-1.72-9.27c-1.31-7.08,2.99-12.9,10.07-13.64c6.15-0.64,14.08,3.69,16.98,9.21
			c2.93,5.56,4.01,11.61,4.41,17.74c0.65,9.87,0.89,19.76,1.31,29.65c-0.15,4.2,0.7,8.25,1.77,12.28
			C202.41,190.55,202.47,191.22,202.53,191.9z"/>
		<path class="st0" d="M202.35,189.87c-2.03-3.88-3.52-7.84-1.77-12.27C201.76,181.6,202.2,185.71,202.35,189.87z"/>
		<path class="st4" d="M240.98,319.73c0.56-1.07,1.11-2.14,1.66-3.22c-0.03-0.06-0.06-0.11-0.09-0.16
			c-0.74,0.39-1.47,0.81-2.18,1.27C240.74,318.23,240.94,318.95,240.98,319.73z"/>
		<path class="st4" d="M193.24,372.34c-0.29,0.92-0.69,2.23-1.17,3.86c0.39-1.09,0.8-2.18,1.21-3.27
			C193.26,372.73,193.25,372.54,193.24,372.34z"/>
		<path class="st2" d="M276.23,253.63c-0.04,0.84-0.09,1.58-0.86,1.66c-0.88,0.09-0.98-0.65-0.88-1.29
			c0.09-0.63,0.35-1.34,1.13-1.25C275.88,252.77,276.09,253.41,276.23,253.63z"/>
		<path class="st1" d="M176.57,183.9c-0.23-0.24-0.27-0.51-0.11-0.81c0.13-0.57,0.04-1.37,0.85-1.38c0.29-0.01,0.84,0.58,0.86,0.92
			C178.23,183.67,177.36,183.78,176.57,183.9z"/>
		<path class="st0" d="M269.34,164.39c-2.81,2.02-5.16,1.36-7.31,1.7C263.82,164.41,265.83,163.48,269.34,164.39z"/>
		<path class="st0" d="M260.97,171.94c-0.47-0.41-0.79-0.68-1.12-0.96c0.3-0.3,0.59-0.81,0.91-0.83c0.34-0.02,0.71,0.43,1.06,0.67
			C261.56,171.15,261.31,171.48,260.97,171.94z"/>
	</g>
</g>
<path class="st5" d="M297.61,319.64c1.8,3.63,3.53,7.07,5.19,10.54c0.44,0.91,1.01,1.28,2.03,1.4c3.69,0.44,7.36,1,11.09,1.52
	c-0.01,0.59-0.5,0.85-0.83,1.18c-2.44,2.42-4.89,4.83-7.36,7.22c-0.62,0.6-0.8,1.18-0.62,2.08c0.73,3.74,1.33,7.51,1.99,11.29
	c-0.52,0.05-0.83-0.23-1.16-0.4c-3.13-1.64-6.27-3.28-9.38-4.96c-0.67-0.36-1.18-0.39-1.87-0.02c-3.07,1.67-6.18,3.29-9.28,4.92
	c-0.37,0.2-0.76,0.37-1.32,0.64c0.36-2.09,0.68-4.01,1.02-5.93c0.36-2.04,0.71-4.08,1.11-6.12c0.12-0.62-0.22-0.94-0.57-1.29
	c-2.4-2.36-4.81-4.71-7.2-7.08c-0.42-0.42-1.25-0.89-1.09-1.34c0.2-0.55,1.12-0.35,1.73-0.44c3.29-0.48,6.58-0.92,9.88-1.34
	c0.67-0.09,0.98-0.48,1.25-1.02c1.61-3.26,3.23-6.52,4.85-9.78C297.23,320.4,297.39,320.08,297.61,319.64z"/>
</svg>
