<?xml version="1.0" encoding="utf-8"?>
<!-- Generator: Adobe Illustrator 26.1.0, SVG Export Plug-In . SVG Version: 6.00 Build 0)  -->
<svg version="1.1" id="Lager_1" xmlns="http://www.w3.org/2000/svg" xmlns:xlink="http://www.w3.org/1999/xlink" width="24" height="24"
	 viewBox="0 0 595.28 841.89" style="enable-background:new 0 0 595.28 841.89;" xml:space="preserve">
<style type="text/css">
	.st0{fill:#020203;}
	.st1{fill:#020303;}
</style>
<g>
	<g>
		<path class="st0" d="M265.18,505.32c-20.3,0-40.6-0.1-60.89,0.09c-3.72,0.03-4.91-0.89-4.71-4.68c0.33-6.13,0.23-12.3,0.04-18.45
			c-0.15-5.14,1.73-8.69,6.27-11.43c17.34-10.46,35.86-17.35,56.19-18.04c24.01-0.82,45.6,7.1,65.55,19.97
			c2.29,1.48,3.15,3.81,3.19,6.42c0.13,7.81,0.15,15.62,0.3,23.43c0.07,3.74-2.65,2.66-4.55,2.67
			C306.11,505.34,285.64,505.32,265.18,505.32z"/>
		<path class="st0" d="M231.16,395.08c0.04-12.77,4.48-23.67,14.32-32.06c11.46-9.77,27.79-9.62,39.25,0.2
			c17.32,14.83,18.98,44.22,3.43,60.96c-15.35,16.53-40.7,13.04-51.55-7.11C232.92,410.21,231.01,402.91,231.16,395.08z"/>
		<path class="st1" d="M331.99,371.44c-4,0-8-0.18-11.98,0.06c-2.97,0.18-3.54-0.99-3.55-3.71c-0.04-8.14-0.16-8.14,8.05-8.14
			c5.99,0,12-0.21,17.98,0.08c3.59,0.17,4.99-0.6,4.79-4.56c-0.36-7.3,0.05-14.64-0.18-21.96c-0.09-3.06,0.73-4.31,3.85-3.84
			c1.3,0.19,2.69,0.21,3.99,0c3.32-0.55,3.8,1.06,3.72,3.93c-0.18,7.32,0.12,14.65-0.14,21.96c-0.12,3.4,0.65,4.63,4.3,4.48
			c7.48-0.3,14.99,0.08,22.47-0.17c3.36-0.11,4.53,1,4.09,4.23c-0.18,1.31-0.16,2.67,0,3.99c0.33,2.79-0.68,3.78-3.59,3.71
			c-7.65-0.18-15.32,0.15-22.97-0.15c-3.65-0.14-4.42,1.09-4.3,4.48c0.26,7.31-0.04,14.64,0.14,21.96c0.07,2.87-0.41,4.47-3.73,3.93
			c-1.3-0.21-2.68-0.2-3.99,0c-3.14,0.47-3.94-0.81-3.84-3.85c0.23-7.15-0.21-14.32,0.18-21.46c0.24-4.33-1.29-5.45-5.3-5.04
			C338.67,371.71,335.32,371.44,331.99,371.44z"/>
	</g>
</g>
</svg>
