<svg version="1.1" id="Lager_1" xmlns="http://www.w3.org/2000/svg" x="0" y="0" viewBox="0 0 595.28 841.89" style="enable-background:new 0 0 595.28 841.89" xml:space="preserve"><style>.st0{fill:#da2c74}.st1{fill:#db2c75}.st2{fill:#db2c74}.st4{fill:#fafafa}</style><path class="st0" d="M512.64 362.81c7.82.32 16-1.43 22.96 3.96 5.56 6.62 6.49 10.64 3.05 16.07-3.31 5.23-6.44 9.2-16.23 7.13-3.2-.67-6.22.75-9.29 1.3-21.39 3.88-42.17 10.37-63.43 14.8-7.17 1.49-14.43 2.46-21.74.89-3.4-.73-4.62.5-5.04 3.96-1.33 10.91-2.27 21.84-2.63 32.81-.15 4.49-2.88 7.69-4.78 11.33-.35.67-1.41 1.64-1.84 1.51-5.05-1.56-10.91 1.07-15.42-2.89-1.04-.91-2.36-1.26-3.3-2.06-3.38-2.88-6.3-5.76-6.15-11.06.38-13.58.13-27.17.13-41.52-3.58 1.39-3.2 3.57-3.65 5.08-5.65 19.02-13.38 37.1-22.66 54.65-5.56 10.52-13.47 10.46-23.24 7.51-3.77-1.14-7.44-3.18-10.28-5.97-3.68-3.62-4.9-1.81-6.24 1.91-2.31 6.39-3.65 13.12-6.66 19.28-3.28 6.71-6.38 8.25-13.89 6.68-4.42-.93-8.12-3.58-12.28-5.28-1.13 1.53-.52 3.03-.47 4.41.11 2.66.4 5.31.68 7.96.47 4.45-.28 11.02-3.16 11.64-4.43.95-9.97 3.28-14.74-.11-1.18-.84-2.58-.63-3.72-1.17-4.07-1.92-7.43-3.85-7.56-9.64-.44-18.96-1.58-37.9-2.47-56.85-.04-.83-.14-1.66-.32-2.47-2.99-13.16 4.96-22.14 17.95-19.47 8.23 1.69 7.79.37 7.77-6.97-.01-2.16-.27-4.32-.51-6.47-.85-7.6-.96-7.26-8.45-9.25-5.65-1.5-10.58-4.89-14.08-9.58-1.98-2.65-1.14-6.5.75-8.95 2.44-3.15 6.02-5.6 10.33-4.94 3.99.62 8.31.65 11.45 4.1 1.71 1.87 3.81 1.11 5.96.26 10.62-4.18 16.82-1.99 22.66 7.58 1.31 2.15 1.48 4.29 1.43 6.66-.14 6.49-.92 12.96-.29 19.46.25 2.54.57 4.02 3.89 2.54 10.81-4.83 19.12-2.39 25.93 7.1.94 1.31 1.54 3.48 3.3 3.45 2.05-.04 1.79-2.5 2.44-3.88 2.76-5.86 5.08-11.93 7.97-17.72 3.87-7.77 6.14-16.06 9.03-24.16 4.17-11.69 6.44-23.83 10.39-35.52.81-.13 1.39-.06.85.99v3.36c.26.04.51.08.77.11 1.79-7.09 3.58-14.18 5.38-21.26-.41-2.42-2.74-4.48-1.35-7.24 3.76-16.73 6.85-33.54 6.55-50.79-.07-4.28 1.95-6.5 6.28-7.52 13.25-3.15 22.58 8.14 20.87 19.77-2.36 16.07-3.49 32.31-2.27 48.87 6.09-1.99 7.61-7.67 9.92-12.22 3.83-7.55 7.79-15.03 11.84-22.46 6.07-11.12 13.2-21.45 22.8-29.89 2.34-2.06 3.38-5.18 6.15-7.08 4.52-3.1 9.34-4.92 14.73-5.46 1.2-.32 2.27-.21 2.98.98 2.34 1.61 4.69 3.22 7.03 4.83 1.9 1.15 2.12 3.3 2.98 5.07 3.06 2.88 2.49 6.25 1.25 9.67-3.68 10.15-10.02 18.78-15.97 27.59-14.91 22.08-29.41 44.4-42.1 67.86-1.59 2.94-2.77 6.04-3.62 9.29-.89 3.42.17 5 3.82 5.05 6.05.1 12.02-.76 17.72-2.48 16.41-4.97 33.23-8.17 49.85-12.27 3.34-.86 6.57-2.23 9.99-2.87z"/><path class="st1" d="M365.18 100.17c6.03-12.64 10.31-26.01 12.37-39.7 1.84-12.3 13.06-13.19 20.03-9.18 5.24 3.01 8.58 7.6 9.08 13.53.52 6.08.68 12.27-.35 18.36-1.01 5.98.41 7.5 6.11 5.48 8.56-3.03 16.99-6.45 25.47-9.71 7.14-1.68 13.69-4.96 20.53-7.47 6.81-2.5 13.5-3.13 20.09.92 5.17 3.18 7.32 7.81 6.21 13.54-.98 5.08-4.63 8.69-9.5 9.82-21.28 4.96-41.37 13.15-61.3 21.85-4.76 2.08-6.4 4.57-6.48 10.44-.18 13.98 2.11 27.85 1.24 41.8-.34 5.39.65 10.58 1.89 15.77 1 4.19 4.58 6.68 7.3 9.17 4.01 3.67 5.11 8.41 5.77 12.75 1.47 9.65 2.44 19.52.05 29.27-.36.7-.76 1.38-1.09 2.1-3.73 8.31-11.08 10.78-19.29 6.57-7.67-3.93-12.45-9.91-14.82-18.36-4.51-16.02-5.07-32.5-6.2-48.89-.91-13.26-.9-26.6-1.18-39.9-.07-3.58-.21-5.24-4.51-2.8-5.71 3.24-9.83 7.11-10.73 13.9-.23 1.76-.84 3.78-1.97 5.06-5.59 6.35-6.2 13.27-3.41 21 1.31 3.63.85 7.56.58 11.39-.95.91-1.69 2.06-2.99 2.59-.75.31-2.01.79-1.73 1.53 2.32 6-4.77 11.86.14 18.17 1.93 2.47-1.97 6.61-5.05 5.43-2.21-.85-3.08-.39-4.47 1.3-2.2 2.68-5.22 1.89-6.34-1.34-1.21-3.46-5.61-5.36-8.77-3.71-2.93 1.53-4.75.8-5.4-2.52 2.2-6.78 5.29-13.28 5.75-20.59.17-2.7.12-5.31-.52-7.91-.31-1.26-.45-2.87-2.16-2.96-1.92-.11-1.77 1.67-2.07 2.86-.79 3.09-.84 6.26-.81 9.43.04 4.16.13 8.34-1.03 12.4-1.76 3.83-2.85 8.11-8.09 9.02-1.85.32-2.01 2.01-.41 3.35 1.01.86 2.07 1.69 2.6 2.96.77 1.85.71 3.68-.99 4.94-1.81 1.34-3.48.57-4.82-.91-1.09-1.21-1.77-2.7-3.24-3.68-5.46-3.65-5.14-7.76.72-11.05.97-.54 2.29-.5 2.95-1.73-1.21-.61-3.04.5-3.74-1.45-.21-.58-.53-.49-.54-.33-.13 2.98-2.19 3.4-4.51 3.34-1.91-.05-2.43 1.37-3.2 2.65-.93 1.55-2.05 2.73-3.95 1.24-2.46-12.16-3.69-24.43-3.09-36.85 2.11-5.32.55-11.15 2.61-16.61 2.27-6.03 6.1-10.11 12.63-10.53 3.85-.25 6.26-.92 7.55-5.27 1.57-5.26 10.43-8.21 17.66-6.71 1.93.4 4 .61 5.73 1.45 2.41 1.17 3.6-.11 5.12-1.54 1.63-1.54.9-2.94.26-4.48-2.16-5.11-.72-9.25 4.28-12.51 2.74-1.79 6.1-2.71 8.02-5.66 2.55-2.21 4-5.06 4.85-8.27-.17-1.16.03-2.16 1.16-2.76z"/><path class="st0" d="M266.73 280.95a11.875 11.875 0 0 0-7.75-3.06c-8.26-.16-16.23 1.47-23.5 5.38-9.75 5.25-18.49 11.74-26.1 20.07-2.45 2.68-2.17 6.15-4.77 8.22-2.42 1.92-4.03 4.57-5.01 7.32-2.26 6.37-6.28 11.67-9.72 17.32-.57.94-.99 2.43-2.39 2.17-1.98-.37-.04-2.36-1.67-3.86-.86 3.5-3.32 6.52-5.25 6.83-4.48.7-4.72 4.33-6.47 6.85-1.85 2.68-3.87 4.77-7.04 5.95-8.09 3.03-10.57 7.6-9.27 16.33 3.26 21.89 4.32 44.01 6.71 65.99.34 3.11-.26 5.58-2.71 8.03-3.89 3.88-3.11 9.04 1.5 12.3 1.54 1.09 2.25 2.21 2.42 3.99 1.59 16.38 3.38 32.75 4.8 49.15 1.15 13.28 2.56 26.46 7.14 39.12 1.53 4.24 4.09 7.54 8.17 8.72 2.34.68 4.67 1.47 6.99 2.22 10.16 3.28 17.98-3.17 15.49-13.52-3.34-13.93-5.25-28.07-7.2-42.21-2.02-14.65-5.49-29.01-8.22-43.52-.53-2.79-.87-5.35 1.82-7.67 26.62-22.96 46.85-51.12 64.95-80.95 10.76-17.73 19.63-36.15 21.41-57.36 1.18-14.02-4.33-24.81-14.33-33.81zm-10.32 36.75c-.85 13.15-7.28 26.85-13.3 38.38-.22.42-.45.83-.67 1.24-6.89 14.32-14.68 28.34-23.55 41.51-.05.08-.11.16-.17.24-4.75 12.91-12.08 25.43-25.39 29.74-2.82.91-5.17-1.08-6.15-3.49-5.05-12.4-2.31-26.72 1.52-39.08 1.37-4.43 2.91-8.89 4.59-13.32-.44-3.21 1.28-5.63 2.82-8.18-.62-1.49-1.1-3.05-1.11-4.76-.04-8.51 6.1-16.71 10.9-23.27 7.02-9.57 16.39-18.57 26.23-25.47 2.08-1.82 4.56-3.5 7.1-4.44 3.31-1.69 7-2.82 10.49-1.79 5.49 1.66 7.02 7.62 6.69 12.69z"/><path class="st0" d="M240.98 319.73c.56-1.07 1.11-2.14 1.66-3.22-.03-.06-.06-.11-.09-.16-.74.39-1.47.81-2.18 1.27.37.61.57 1.33.61 2.11zM182.38 222.86c-.93-4.7-1.85-9.39-2.78-14.09-3.48-7.41-3.77-15.4-4.21-23.35.01-.95 2.27-2.13-.29-2.85-1.28-3.28-2.03-6.61-1.22-10.13 1.42-1.44 3.52-1.33 5.21-2.44 3.31-2.18 4.6 2.16 7.11 2.95 2.08.65 1.28 2.19.67 3.64-.63 1.5-.55 3.21-1.57 4.65-2.75 3.86-2.7 3.89 2.02 6.09-.18-.27-.38-.54-.46-.86-.71-2.97-.46-6.22 2.42-7.32 3.13-1.19 4.1 2.42 5.65 4.38.2.25.38.58.4.9.32 4.51 1.9 7.79 7.2 7.48.98 6.2 2.23 12.37 2.86 18.6.43 4.24 1.84 4.22 4.72 2.02 15.4-11.76 28.17-25.55 34.48-44.4.15-.45.49-.84.75-1.26 3.69-.09 5.17 2.5 6.26 5.37 1.42 3.74-2.04 5.1-3.95 7.38 3.32.45 6.19.43 9.15-1.37 2.85-1.73 6.24-2.16 9.54-.71 3.41 1.5 4.38-.28 3.78-3.19-.55-2.66-.35-4.81 1.66-6.79 1.73-1.71 1.19-3.51-.14-5.34-2.15-2.97-1.98-5.88 1.67-7.23 3.23-1.2 1.9-4.8 4.08-6.35 1.59 8.32.46 16.85 1.83 25.19.29 1.78-.06 3.66.92 5.32.5 13.78 3.01 27.34 4.6 41 .61 5.26 1.56 10.48 2.36 15.71-1.65 3.75-2.84 7.69-6.62 10.21-1.85 1.23-1.03 3.73-.66 5.65.59 3.08.68 5.9-1.81 8.33-2.17 2.11-.51 5.67-2.75 7.81-1.33-.64-2.67-1.29-4-1.93-1.12-1.09-1.69-3.17-3.95-2.16-1.43-.52-2.46-1.51-3.26-2.77.97-2.86 3.79-5.04 2.65-8.72-.48-1.57 1.62-2.27 2.68-3.27 3.74-3.55 4.01-6.59 1.01-10.84-1.44-2.04-.38-5.53 2.01-6.79 1.18-.62 2.56-.01 4.04-.84-3.96-1.51-5.33 1.29-6.72 3.59-4.07 6.73-4.5 6.85-10.47 1.77-1.58-6.82-2.07-13.76-2.07-20.74 0-3.68-.41-7.27-1.94-10.64-1.57-.3-2.07.98-2.75 1.76-11.61 13.31-24.83 24.93-38.29 36.26-3.19 2.68-4.6 5.44-3.69 9.45 1.23 5.43.83 11.03 3.46 16.4 1.66 3.4 1.47 8.89-1.47 11.66-3.64 3.43-8.8 3.87-14.04 2.35-8.17-2.37-14.92-6.82-21.07-12.54-2.76-2.57-5.52-5.28-9.03-6.92-1.33-1.45-2.94-2.5-4.74-3.26-2.15-.07-3.15-1.53-3.91-3.26-4.77-3.89-2.65-7.66.2-11.41 1.02-3.96 4.05-5.36 7.64-6.07 2.4-.98 4.8-1.95 7.2-2.93.09-.32.18-.7.44-.85 4.8-2.73 7.2-6.81 7.19-12.3zM327.11 208.77c1.49 2.49 3.23 3.02 4.79.23.73-1.31 1.66-2.79 2.84-1.81 2.19 1.81 3.8 4.07 7.25 3.47.87-.15 1.41 1.79.47 2.86-1.05 1.2-1.17 1.97.55 2.45 1.23.34 2.32 1.1 3.15-.92 1.01-2.45 2.13-6.31 5.41-1.45 1.01 1.5 1.99.26 2.81-.53 1.27-1.22 2.41-2.64.91-4.3-3.88-4.3-2.88-8.38.24-12.5.27-.36.56-1.11.38-1.37-4.56-6.76 1.75-6.44 5.15-8 .03 1 .05 2 .08 3-1.61 1.27-1.57 2.61-.15 4-.19 13.97-5.4 26.29-13.48 37.21-6.75 9.12-18.67 11.04-29.12 6.66-12.52-5.24-18.58-14.79-19.99-27.87 1.17-.05 2.45 0 2.73-1.53.57-3.07 2.39-4.01 5.35-3.53 1.4.23 2.62-.15 2.53-2.12-.06-1.36-2.67-3.74.95-3.87 3.4-.13 1.25 2.96 1.92 4.46 1.74.05 2.51-2.67 4.43-1.45.81.51.55 1.4.32 2.25-.48 1.79-1.33 2.72-3.4 2.89-3.23.27-5.16 2.79-5.53 5.6-.35 2.68 2.4 3.05 4.54 3.54 1.53.35 1.7 1.77 2.07 3.09.52 1.84 1.95 3 3.72 1.92 1.67-1.02 1.44-2.86.35-4.39-.47-.65-1.18-1.16-1.83-1.66-1.12-.86-3.29-.94-3.06-2.8.24-1.93 2.7-3.66 3.68-3.56 5.61.57 4.78-4.79 7.13-7.12 3.32 1.43 2.03 4.7 2.81 7.15z"/><path class="st2" d="M275.29 267.85c.05-3.89-.46-7.57 3.28-10.81 2.08-1.8-.43-5.58-.69-8.48-.18-1.98.01-3.51 1.67-4.11 4.05-1.46 4.87-4.7 5.43-8.37.28-1.85 1.41-.28 2.15-.22.93 4.1 2.26 7.95 4.55 11.6 3.72 5.93 2.77 13.29-1.77 18.45-3.14 3.58-8.88 4.33-14.62 1.94zM259.28 235.88c6.92 5.07 8.91-1.32 11.45-5.3 1.85-2.89 3.69-2.73 6.22-1.66 1.33.56 2.54 1.25 1.95 2.89-.52 1.44-1.96 1.21-2.99.76-3.5-1.54-4.41.63-5.08 3.32-.18.72-.13 1.59.52 1.69 7.44 1.04.91 5.98 2.37 8.69.07.13-1.18.74-1.37 1.29-1 2.91-6.22 3.62-3.91 8.54.68 1.45-2.25 3.77-4.38 4.9-2.43-1.7-1.7-4.47-2.05-6.76-.94-6.12-2.98-12.07-2.73-18.36zM267.34 263.76c.16-1.1.3-2.6 1.78-2.14 1.9.6 2.3 2.42 2.17 4.29-1.68-.06-2.91-.93-3.95-2.15z"/><path class="st1" d="M360.98 193.89c-1.2-.12-2.44-.47-2.52-1.83-.1-1.72 1.31-2.02 2.67-2.17l-.15 4z"/><path d="M377.03 341.88c-.28-.33-.56-.66-.85-.99.35-1.18.69-2.37 1.04-3.55.96 1.66.91 3.16-.19 4.54z" style="fill:#cd2c6e"/><path class="st1" d="M277.41 148.64c-.34 3.34 1.14 7.37-4.69 7.97-2.06.21-1.96 3.35-.05 4.83 3.7 2.87 2.43 5.49-.36 7.71-1.72 1.37-1.84 2.49-.82 4.15 1.47 2.4.39 4.73-.96 6.47-1.76 2.26-3.23-.43-4.6-1.14-2.93-1.53-6.64-.98-8 .57-3.2 3.64-7.07 1.27-10.38 2.45-1.02.36-2.01 0-2.56-.99-.63-1.13.09-1.79.96-2.43 6.5-4.8 6.42-6.18-.59-11.36.7-3.91 1.12-7.89 2.15-11.71 3.81-14.2.13-28.12-1.39-42.1-1.2-10.97 7.34-17.63 17.92-13.56 4.1 1.58 6.87 4.37 8.21 8.72 4.04 13.18 4.82 26.77 5.16 40.42zM202.53 191.9c-2.7-.79-5.31 3.3-7.18 1.08-1.02-1.2-.66-4.61-.85-7.03-.2-2.58-2.55-3.79-3.58-5.85-.47-.93-1.62-.71-1.93.2-.69 1.98-2.24 3.99-.96 6.13.6 1 1.95 1.55 4.2 3.22-5.49-.19-8.68-2.67-12.09-4.39-.6-.3-.6-1.53-.02-1.69 4.78-1.3 4.98-5.74 6.51-9.38-1.08-.22-2.85-.1-3.18-.73-1.99-3.8-3.41-4.45-5.71-.09-.78 1.47-2.06-.76-3.02-1.48-1.88-1.7-2.06-3.75-1.2-6-.66-4-1.31-7.99-1.97-11.99-1.84-3.1-2.68-6.4-2.01-10-.57-3.09-1.14-6.18-1.72-9.27-1.31-7.08 2.99-12.9 10.07-13.64 6.15-.64 14.08 3.69 16.98 9.21 2.93 5.56 4.01 11.61 4.41 17.74.65 9.87.89 19.76 1.31 29.65-.15 4.2.7 8.25 1.77 12.28.05.68.11 1.35.17 2.03z"/><path class="st0" d="M202.35 189.87c-2.03-3.88-3.52-7.84-1.77-12.27 1.18 4 1.62 8.11 1.77 12.27z"/><path class="st4" d="M240.98 319.73c.56-1.07 1.11-2.14 1.66-3.22-.03-.06-.06-.11-.09-.16-.74.39-1.47.81-2.18 1.27.37.61.57 1.33.61 2.11zM193.24 372.34c-.29.92-.69 2.23-1.17 3.86.39-1.09.8-2.18 1.21-3.27-.02-.2-.03-.39-.04-.59z"/><path class="st2" d="M276.23 253.63c-.04.84-.09 1.58-.86 1.66-.88.09-.98-.65-.88-1.29.09-.63.35-1.34 1.13-1.25.26.02.47.66.61.88z"/><path class="st1" d="M176.57 183.9c-.23-.24-.27-.51-.11-.81.13-.57.04-1.37.85-1.38.29-.01.84.58.86.92.06 1.04-.81 1.15-1.6 1.27z"/><path class="st0" d="M269.34 164.39c-2.81 2.02-5.16 1.36-7.31 1.7 1.79-1.68 3.8-2.61 7.31-1.7zM260.97 171.94c-.47-.41-.79-.68-1.12-.96.3-.3.59-.81.91-.83.34-.02.71.43 1.06.67-.26.33-.51.66-.85 1.12z"/><path d="M297.61 319.64c1.8 3.63 3.53 7.07 5.19 10.54.44.91 1.01 1.28 2.03 1.4 3.69.44 7.36 1 11.09 1.52-.01.59-.5.85-.83 1.18-2.44 2.42-4.89 4.83-7.36 7.22-.62.6-.8 1.18-.62 2.08.73 3.74 1.33 7.51 1.99 11.29-.52.05-.83-.23-1.16-.4-3.13-1.64-6.27-3.28-9.38-4.96-.67-.36-1.18-.39-1.87-.02-3.07 1.67-6.18 3.29-9.28 4.92-.37.2-.76.37-1.32.64.36-2.09.68-4.01 1.02-5.93.36-2.04.71-4.08 1.11-6.12.12-.62-.22-.94-.57-1.29-2.4-2.36-4.81-4.71-7.2-7.08-.42-.42-1.25-.89-1.09-1.34.2-.55 1.12-.35 1.73-.44 3.29-.48 6.58-.92 9.88-1.34.67-.09.98-.48 1.25-1.02 1.61-3.26 3.23-6.52 4.85-9.78.16-.31.32-.63.54-1.07z" style="fill:#dc2a88"/></svg>