<svg xmlns="http://www.w3.org/2000/svg" width="24" height="24" viewBox="0 0 1000 1000" xml:space="preserve"><path d="M500 10C229.4 10 10 229.4 10 500s219.4 490 490 490 490-219.4 490-490S770.6 10 500 10zm0 146.5c89.5 0 162.1 72.6 162.1 162.1S589.5 480.7 500 480.7s-162.1-72.6-162.1-162.1S410.5 156.5 500 156.5zm-.1 705.4c-89.3 0-171.1-32.5-234.2-86.3-15.4-13.1-24.2-32.3-24.2-52.5 0-90.8 73.5-163.4 164.3-163.4h188.6c90.8 0 164 72.6 164 163.4 0 20.2-8.8 39.4-24.2 52.5-63.2 53.7-145 86.3-234.3 86.3z"/></svg>